<svg width="32.000000" height="32.000000" viewBox="0 0 32 32" fill="none" xmlns="http://www.w3.org/2000/svg" xmlns:xlink="http://www.w3.org/1999/xlink">
	<desc>
			Created with Pixso.
	</desc>
	<defs/>
	<rect id="done_outline_24px" rx="0.000000" width="31.000000" height="31.000000" transform="translate(0.500000 0.500000)" fill="#FFFFFF" fill-opacity="0"/>
	<path id="icon/action/done_outline_24px" d="M11.2399 17.9267L24.4799 4.68668C25.5199 3.64668 27.1999 3.64668 28.2532 4.68668L30.1199 6.55334C31.1599 7.59334 31.1599 9.28668 30.1199 10.3267L13.1199 27.3133C12.0798 28.3533 10.3865 28.3533 9.34653 27.3133L1.87985 19.8467C0.839859 18.8067 0.839859 17.1133 1.87985 16.0733L3.74652 14.2067C4.78651 13.1667 6.47986 13.1667 7.51985 14.2067L11.2399 17.9267ZM27.2933 7.51335C27.8133 8.03335 27.8133 8.86002 27.2933 9.38002L12.1733 24.5C11.6533 25.02 10.8266 25.02 10.3066 24.5L4.70663 18.9C4.45709 18.6535 4.31665 18.3174 4.31665 17.9667C4.31665 17.616 4.45709 17.2798 4.70663 17.0334C5.22662 16.5134 6.0533 16.5134 6.5733 17.0334L11.24 21.7L25.4266 7.51335C25.9466 6.99335 26.7733 6.99335 27.2933 7.51335Z" clip-rule="evenodd" fill="#000000" fill-opacity="0.540000" fill-rule="evenodd"/>
</svg>
