<svg width="48.000000" height="48.000000" viewBox="0 0 48 48" fill="none" xmlns="http://www.w3.org/2000/svg" xmlns:xlink="http://www.w3.org/1999/xlink">
	<desc>
			Created with Pixso.
	</desc>
	<defs>
		<clipPath id="clip3_24">
			<rect id="delete_forever" width="48.000000" height="48.000000" fill="white" fill-opacity="0"/>
		</clipPath>
	</defs>
	<rect id="delete_forever" width="48.000000" height="48.000000" fill="#FFFFFF" fill-opacity="0"/>
	<g clip-path="url(#clip3_24)">
		<path id="矢量 91" d="M12 38C12 40.2 13.8 42 16 42L32 42C34.2 42 36 40.2 36 38L36 14L12 14L12 38ZM16.92 23.76L19.74 20.94L24 25.18L28.24 20.94L31.06 23.76L26.82 28L31.06 32.24L28.24 35.06L24 30.82L19.76 35.06L16.94 32.24L21.18 28L16.92 23.76ZM31 8L29 6L19 6L17 8L10 8L10 12L38 12L38 8L31 8Z" fill="#444444" fill-opacity="1.000000" fill-rule="evenodd"/>
	</g>
</svg>
